<?xml version="1.0" encoding="UTF-8"?>
<svg width="305px" height="305px" viewBox="0 0 305 305" version="1.1" xmlns="http://www.w3.org/2000/svg" xmlns:xlink="http://www.w3.org/1999/xlink">
    <g id="chrome" fill-rule="nonzero" fill="#FFFFFF">
        <path d="M95.506,152.511 C95.506,183.937 121.073,209.502 152.5,209.502 C183.925,209.502 209.49,183.936 209.49,152.511 C209.49,121.085 183.925,95.518 152.5,95.518 C121.073,95.518 95.506,121.085 95.506,152.511 Z" id="XMLID_17_"></path>
        <path d="M283.733,77.281 C284.177,76.5 284.169,75.541 283.71,74.768 C270.435,52.41 251.543,33.682 229.077,20.609 C205.922,7.134 179.441,0.012 152.5,0.012 C105.875,0.012 62.423,20.936 33.285,57.419 C32.642,58.223 32.558,59.338 33.073,60.229 L76.003,134.584 C76.453,135.364 77.283,135.834 78.167,135.834 C78.279,135.834 78.393,135.826 78.506,135.811 C79.512,135.674 80.335,134.942 80.589,133.959 C89.054,101.16 118.625,78.253 152.5,78.253 C154.602,78.253 156.773,78.349 158.955,78.535 C159.026,78.542 159.098,78.545 159.169,78.545 L281.56,78.545 C282.459,78.545 283.289,78.063 283.733,77.281 Z" id="XMLID_18_"></path>
        <path d="M175.035,224.936 C174.414,224.133 173.372,223.788 172.389,224.06 C165.932,225.858 159.241,226.769 152.5,226.769 C123.859,226.769 97.462,209.971 85.249,183.975 C85.219,183.911 85.186,183.849 85.151,183.787 L23.911,77.719 C23.465,76.944 22.639,76.469 21.746,76.469 L21.733,76.469 C20.835,76.474 20.008,76.959 19.568,77.741 C6.767,100.456 0,126.311 0,152.511 C0,189.266 13.26,224.769 37.337,252.48 C61.175,279.915 93.993,297.97 129.748,303.32 C129.872,303.339 129.996,303.347 130.119,303.347 C131.002,303.347 131.832,302.877 132.283,302.097 L175.224,227.719 C175.732,226.839 175.657,225.739 175.035,224.936 Z" id="XMLID_19_"></path>
        <path d="M292.175,95.226 L206.201,95.226 C205.185,95.226 204.27,95.841 203.887,96.781 C203.503,97.721 203.726,98.801 204.451,99.511 C218.836,113.613 226.758,132.435 226.758,152.511 C226.758,167.709 222.172,182.335 213.495,194.809 C213.455,194.867 213.418,194.926 213.383,194.987 L152.037,301.239 C151.588,302.017 151.591,302.976 152.044,303.752 C152.493,304.519 153.315,304.989 154.202,304.989 L154.23,304.989 C194.6,304.539 232.483,288.478 260.899,259.767 C289.338,231.032 305,192.941 305,152.511 C305,133.294 301.468,114.555 294.502,96.813 C294.126,95.855 293.203,95.226 292.175,95.226 Z" id="XMLID_20_"></path>
    </g>
</svg>
